<?xml version="1.0" encoding="UTF-8"?>
<svg width="320" height="90" viewBox="0 0 320 90" xmlns="http://www.w3.org/2000/svg">
  <defs>
    <linearGradient id="modernOrangeGradient" x1="0%" y1="30%" x2="100%" y2="70%">
      <stop offset="0%" style="stop-color:#fb923c;stop-opacity:1" />
      <stop offset="30%" style="stop-color:#f97316;stop-opacity:1" />
      <stop offset="70%" style="stop-color:#ea580c;stop-opacity:1" />
      <stop offset="100%" style="stop-color:#c2410c;stop-opacity:1" />
    </linearGradient>
    <filter id="modernShadow">
      <feDropShadow dx="0" dy="3" stdDeviation="6" flood-opacity="0.2"/>
    </filter>
  </defs>
  
  <!-- Background for contrast -->
  <rect width="320" height="90" fill="transparent"/>
  
  <!-- Main text with modern styling -->
  <g filter="url(#modernShadow)">
    <!-- Letter P -->
    <path d="M25 25 L25 65 L30 65 L30 47 L42 47 Q50 47 50 39 Q50 31 42 31 L30 31 L30 25 Z M30 31 L30 42 L40 42 Q45 42 45 39 Q45 36 40 36 L30 36 Z" 
          fill="url(#modernOrangeGradient)"/>
    
    <!-- Letter A -->
    <path d="M60 25 L55 65 L60 65 L61 55 L71 55 L72 65 L77 65 L72 25 Z M62 50 L70 50 L66 35 Z" 
          fill="url(#modernOrangeGradient)"/>
    
    <!-- Letter I -->
    <path d="M87 25 L87 30 L90 30 L90 60 L87 60 L87 65 L99 65 L99 60 L96 60 L96 30 L99 30 L99 25 Z" 
          fill="url(#modernOrangeGradient)"/>
    
    <!-- Letter D -->
    <path d="M109 25 L109 65 L120 65 Q130 65 130 55 L130 35 Q130 25 120 25 Z M114 30 L118 30 Q125 30 125 35 L125 55 Q125 60 118 60 L114 60 Z" 
          fill="url(#modernOrangeGradient)"/>
    
    <!-- Letter I -->
    <path d="M140 25 L140 30 L143 30 L143 60 L140 60 L140 65 L152 65 L152 60 L149 60 L149 30 L152 30 L152 25 Z" 
          fill="url(#modernOrangeGradient)"/>
    
    <!-- Letter N -->
    <path d="M162 25 L162 65 L167 65 L167 38 L177 65 L182 65 L182 25 L177 25 L177 52 L167 25 Z" 
          fill="url(#modernOrangeGradient)"/>
  </g>
  
  <!-- Accent dot -->
  <circle cx="295" cy="45" r="8" fill="url(#modernOrangeGradient)" filter="url(#modernShadow)"/>
</svg>